<svg width="225" height="276" viewBox="0 0 225 276" fill="none" xmlns="http://www.w3.org/2000/svg">
<path d="M20.645 265.76V261.805L37.1465 241.173C38.3184 239.708 39.4316 238.433 40.4863 237.349H22.5127V233.548H45.584V237.349L27.5005 259.696L25.5449 261.959H46.1113V265.76H20.645ZM64.019 265.76H60.064V240.557C59.1118 241.466 57.8594 242.374 56.3066 243.282C54.7686 244.19 53.3843 244.871 52.1538 245.325V241.502C54.3657 240.462 56.2993 239.202 57.9546 237.723C59.6099 236.243 60.7817 234.808 61.4702 233.416H64.019V265.76ZM88.2988 265.76V233.548H99.395C101.9 233.548 103.812 233.702 105.13 234.01C106.976 234.434 108.55 235.203 109.854 236.317C111.553 237.752 112.82 239.591 113.655 241.832C114.505 244.058 114.93 246.607 114.93 249.478C114.93 251.925 114.644 254.093 114.073 255.982C113.501 257.872 112.769 259.439 111.875 260.684C110.982 261.915 110 262.889 108.931 263.607C107.876 264.31 106.595 264.844 105.086 265.211C103.592 265.577 101.871 265.76 99.9224 265.76H88.2988ZM92.5615 261.959H99.439C101.563 261.959 103.226 261.761 104.427 261.365C105.643 260.97 106.609 260.413 107.327 259.696C108.338 258.685 109.122 257.33 109.678 255.631C110.25 253.917 110.535 251.844 110.535 249.412C110.535 246.043 109.979 243.458 108.865 241.656C107.767 239.84 106.426 238.624 104.844 238.009C103.702 237.569 101.863 237.349 99.3291 237.349H92.5615V261.959ZM117.281 265.76L129.651 233.548H134.244L147.427 265.76H142.571L138.814 256.004H125.345L121.807 265.76H117.281ZM126.575 252.532H137.496L134.134 243.612C133.108 240.902 132.347 238.675 131.849 236.932C131.438 238.997 130.86 241.048 130.113 243.084L126.575 252.532ZM155.689 265.76V237.349H145.076V233.548H170.608V237.349H159.952V265.76H155.689ZM168.125 265.76L180.496 233.548H185.088L198.272 265.76H193.416L189.659 256.004H176.189L172.652 265.76H168.125ZM177.42 252.532H188.34L184.979 243.612C183.953 240.902 183.191 238.675 182.693 236.932C182.283 238.997 181.705 241.048 180.958 243.084L177.42 252.532Z" fill="black"/>
<path d="M67.007 130.435L30.263 151.635L0 134.754L67.007 97.854V130.432" fill="#BEBEBE"/>
<path d="M111.555 230.02V196.948L0 134.754L0.987 166.345L111.555 230.02Z" fill="#26234E"/>
<path d="M171.158 197.689L113.283 230.02V197.689L155.378 175.062L171.159 197.689" fill="#26234E"/>
<path d="M112.613 192.755L130.551 183.14V168.329H129.421V182.535L113.663 191.055H112.613L104.213 186.208L104.297 151.468L102.436 147.815L102.599 186.854L112.613 192.755Z" fill="#1D1D1B" stroke="#1D1D1B" stroke-miterlimit="10"/>
<path d="M128.732 93.025V88.109H102.832V110.247L101.672 112.093V86.544H129.733V92.798" fill="#1D1D1B"/>
<path d="M128.732 93.025V88.109H102.832V110.247L101.672 112.093V86.544H129.733V92.798" stroke="#1D1D1B" stroke-miterlimit="10"/>
<path d="M94.7715 49.607L94.5245 182.757L67.0065 167.742V89.436L43.4365 101.682V77.372L94.7715 49.607Z" fill="#0B4A7D"/>
<path d="M194.071 78.483L157.791 99.131C157.791 99.131 170.378 107.276 172.925 122.824L224.013 94.605L194.071 78.483Z" fill="#BEBEBE"/>
<path d="M137.084 167.9V179.485C137.084 179.485 153.551 170.694 153.615 170.785L152.929 169.837L138.456 177.512V167.742" fill="black"/>
<path d="M138.437 122.661H164.001V140.989H164.865V121.18H137.165V161.572H138.438L138.437 122.661Z" fill="black"/>
<path d="M164.756 140.989H164.001V142.914L164.865 140.989H164.756Z" fill="black"/>
<path d="M175.806 84.49V85.971L156.634 89.671V88.19L175.806 84.49Z" fill="black"/>
<path d="M137.41 70.403L150.056 87.082L151.537 86.075L138.83 69.539L137.41 70.403Z" fill="black"/>
<path d="M133.358 69.539L119.784 79.224L119.044 78.311L132.287 68.982L133.358 69.539Z" fill="black"/>
<path d="M116.28 76.879L114.597 77.373L109.58 51.295L111.347 50.634L116.28 76.879Z" fill="black"/>
<path d="M96.4697 43.284V45.384L106.002 47.384L106.372 45.533L96.4697 43.284Z" fill="black"/>
<path d="M109.259 51.443C111.287 51.443 112.931 49.799 112.931 47.771C112.931 45.743 111.287 44.099 109.259 44.099C107.231 44.099 105.587 45.743 105.587 47.771C105.587 49.799 107.231 51.443 109.259 51.443Z" fill="#034C83"/>
<path d="M135.835 70.896C137.999 70.896 139.754 69.1414 139.754 66.977C139.754 64.8126 137.999 63.058 135.835 63.058C133.671 63.058 131.916 64.8126 131.916 66.977C131.916 69.1414 133.671 70.896 135.835 70.896Z" fill="#034C83"/>
<path d="M116.555 84.041C118.635 84.041 120.321 82.3549 120.321 80.275C120.321 78.1951 118.635 76.509 116.555 76.509C114.475 76.509 112.789 78.1951 112.789 80.275C112.789 82.3549 114.475 84.041 116.555 84.041Z" fill="#034C83"/>
<path d="M153.086 93.292C155.216 93.292 156.941 91.5661 156.941 89.437C156.941 87.3079 155.216 85.582 153.086 85.582C150.957 85.582 149.231 87.3079 149.231 89.437C149.231 91.5661 150.957 93.292 153.086 93.292Z" fill="#034C83"/>
<path d="M43.9312 37.267C42.264 38.0223 40.9641 39.4077 40.3165 41.1196C39.6689 42.8315 39.7263 44.7303 40.4762 46.4C42.6972 49.854 51.5862 54.05 51.5862 54.05C59.9772 57.505 71.0862 54.05 71.0862 54.05L110.328 32.825V0L43.9312 37.267Z" fill="#26234E"/>
<path d="M113.776 0V32.494L194.071 78.646L224.013 94.772V63.182L113.776 0Z" fill="#26234E"/>
<path d="M183.497 180.907L165.851 156.473L166.098 152.855C166.098 152.855 187.486 122.005 157.791 99.299C157.791 99.299 127.02 78.814 103.573 109.25C103.573 109.25 89.2577 126.279 103.079 151.128C103.079 151.128 114.926 170.951 137.715 168.236C137.715 168.236 143.061 167.989 145.615 167.086C145.615 167.086 149.233 166.262 150.304 168.073L155.857 175.724L171.157 197.689L184.731 189.789C184.731 189.789 188.186 186.706 183.497 180.907ZM134.877 161.407C128.751 161.407 122.762 159.59 117.668 156.187C112.575 152.783 108.605 147.946 106.26 142.286C103.916 136.626 103.303 130.399 104.498 124.39C105.693 118.382 108.643 112.863 112.975 108.531C117.307 104.199 122.826 101.249 128.834 100.054C134.842 98.859 141.07 99.4724 146.73 101.817C152.39 104.161 157.227 108.131 160.631 113.225C164.034 118.318 165.851 124.307 165.851 130.433C165.851 138.648 162.587 146.526 156.779 152.335C150.97 158.144 143.091 161.407 134.877 161.407Z" fill="#0B4A7D"/>
</svg>
